<svg width="58" height="58" viewBox="0 0 58 58" fill="none" xmlns="http://www.w3.org/2000/svg">
<path d="M1.75 29C1.75 13.9502 13.9502 1.75 29 1.75C44.0498 1.75 56.25 13.9502 56.25 29C56.25 44.0498 44.0498 56.25 29 56.25C13.9502 56.25 1.75 44.0498 1.75 29Z" stroke="#8F694F" stroke-width="3.5" stroke-linecap="round" stroke-linejoin="round"/>
<path fill-rule="evenodd" clip-rule="evenodd" d="M23.6726 40.0583C23.6838 40.0702 23.6953 40.0819 23.707 40.0936C24.2577 40.6443 25.0841 40.7512 25.7418 40.4144C25.9006 40.3332 26.0496 40.2262 26.1825 40.0933C26.1891 40.0867 26.1956 40.08 26.2021 40.0733L45.1366 21.1388C45.8201 20.4554 45.8201 19.3473 45.1366 18.6639C44.4532 17.9805 43.3452 17.9805 42.6618 18.6639L24.9449 36.3808L17.9425 29.3784C17.2591 28.695 16.1511 28.695 15.4676 29.3784C14.7842 30.0619 14.7842 31.1699 15.4676 31.8533L23.6726 40.0583Z" fill="#8F694F"/>
</svg>
