<svg width="39" height="39" viewBox="0 0 39 39" fill="none" xmlns="http://www.w3.org/2000/svg">
<circle cx="19.5" cy="19.5" r="18.9" stroke="#CFA588" stroke-width="1.2"/>
<path d="M18.9405 26.518H13.5945H7.33052V26.392C7.73852 26.392 8.08052 26.374 8.35652 26.338C8.63252 26.29 8.85452 26.2 9.02252 26.068C9.19052 25.936 9.31052 25.756 9.38252 25.528C9.45452 25.3 9.49052 24.994 9.49052 24.61V14.224V14.008C9.49052 13.348 9.37052 12.898 9.13052 12.658C8.89052 12.406 8.47052 12.262 7.87052 12.226H7.31252V12.118H13.5045H13.5765V12.208H13.5945H13.5765V12.226H12.8385C12.5745 12.25 12.3525 12.298 12.1725 12.37C11.9925 12.442 11.8425 12.544 11.7225 12.676C11.6145 12.808 11.5365 12.982 11.4885 13.198C11.4405 13.414 11.4165 13.678 11.4165 13.99V14.224V24.304V24.628C11.4165 24.964 11.4405 25.24 11.4885 25.456C11.5485 25.672 11.6385 25.846 11.7585 25.978C11.8905 26.11 12.0585 26.212 12.2625 26.284C12.4665 26.344 12.7245 26.38 13.0365 26.392H14.8365C15.3285 26.392 15.7725 26.332 16.1685 26.212C16.5645 26.092 16.9125 25.936 17.2125 25.744C17.5245 25.552 17.7945 25.336 18.0225 25.096C18.2505 24.844 18.4485 24.586 18.6165 24.322C19.0005 23.71 19.2765 23.014 19.4445 22.234H19.5705L19.0485 26.518H18.9405ZM21.736 21.946H21.862H21.88C21.88 22.198 21.91 22.48 21.97 22.792C22.03 23.092 22.114 23.398 22.222 23.71C22.33 24.01 22.462 24.298 22.618 24.574C22.774 24.85 22.948 25.072 23.14 25.24C23.524 25.576 23.956 25.84 24.436 26.032C24.916 26.212 25.426 26.308 25.966 26.32H26.128C26.668 26.296 27.178 26.194 27.658 26.014C28.174 25.774 28.582 25.432 28.882 24.988C29.182 24.544 29.338 24.07 29.35 23.566C29.374 23.05 29.236 22.54 28.936 22.036C28.636 21.52 28.144 21.082 27.46 20.722L25.192 19.552C24.436 19.168 23.836 18.748 23.392 18.292C22.948 17.824 22.63 17.35 22.438 16.87C22.258 16.378 22.192 15.892 22.24 15.412C22.288 14.932 22.432 14.482 22.672 14.062C22.912 13.642 23.23 13.27 23.626 12.946C24.034 12.622 24.496 12.364 25.012 12.172C25.252 12.076 25.492 12.01 25.732 11.974C25.972 11.938 26.218 11.92 26.47 11.92C27.034 11.92 27.574 12.022 28.09 12.226C28.282 12.298 28.486 12.37 28.702 12.442C28.918 12.514 29.134 12.556 29.35 12.568C29.566 12.58 29.77 12.544 29.962 12.46C30.154 12.376 30.322 12.214 30.466 11.974H30.592V15.826V15.88H30.448C30.448 15.628 30.406 15.364 30.322 15.088C30.25 14.812 30.148 14.548 30.016 14.296C29.884 14.032 29.734 13.792 29.566 13.576C29.398 13.348 29.23 13.156 29.062 13C28.714 12.688 28.318 12.454 27.874 12.298C27.43 12.13 26.962 12.046 26.47 12.046C26.266 12.046 26.056 12.064 25.84 12.1C25.636 12.124 25.438 12.166 25.246 12.226C24.694 12.406 24.262 12.694 23.95 13.09C23.65 13.486 23.524 13.942 23.572 14.458C23.632 14.974 23.902 15.526 24.382 16.114C24.862 16.69 25.612 17.266 26.632 17.842L28.702 18.904C29.35 19.252 29.872 19.666 30.268 20.146C30.664 20.614 30.928 21.106 31.06 21.622C31.192 22.138 31.198 22.654 31.078 23.17C30.958 23.686 30.706 24.166 30.322 24.61C29.95 25.042 29.452 25.42 28.828 25.744C28.204 26.056 27.454 26.272 26.578 26.392H26.614C26.518 26.404 26.428 26.416 26.344 26.428C26.272 26.428 26.194 26.428 26.11 26.428H25.93C25.39 26.428 24.868 26.326 24.364 26.122V26.14V26.122C24.292 26.098 24.232 26.074 24.184 26.05C23.692 25.858 23.296 25.768 22.996 25.78C22.696 25.78 22.462 25.828 22.294 25.924C22.138 26.008 22.03 26.116 21.97 26.248C21.91 26.368 21.874 26.446 21.862 26.482V26.5H21.736V21.946Z" fill="#CFA588"/>
</svg>
